<svg xmlns="http://www.w3.org/2000/svg" id="prefix__Icon_24px" width="16.001" height="16.001" data-name="Icon 24px" viewBox="0 0 16.001 16.001">
    <path id="prefix__Shape" fill="none" d="M0 0h16v16H0z"/>
    <path id="prefix__Shape-2" fill="#b3b3b3" d="M12 8H8.728V6.571A2.422 2.422 0 0 0 7.653 4.6c.221-.02.389-.028.529-.028a6.808 6.808 0 0 1 2.386.5c1.184.5 1.432 1.089 1.432 1.5V8zM7.637 8H0V6.571c0-.41.249-1 1.433-1.5a6.809 6.809 0 0 1 2.386-.5 6.809 6.809 0 0 1 2.386.5c1.184.5 1.433 1.089 1.433 1.5V8zm.545-4.571a1.679 1.679 0 0 1-1.637-1.715A1.679 1.679 0 0 1 8.182 0a1.676 1.676 0 0 1 1.631 1.714 1.676 1.676 0 0 1-1.631 1.715zm-4.364 0a1.679 1.679 0 0 1-1.636-1.715A1.679 1.679 0 0 1 3.818 0a1.676 1.676 0 0 1 1.631 1.714 1.676 1.676 0 0 1-1.631 1.715z" data-name="Shape" transform="translate(2 4)"/>
</svg>
